# xmcd
#
# Track frame offsets:
#	150
#	21139
#	36282
#	48833
#	62563
#	74472
#	89680
#	107707
#	120804
#	139088
#	154041
#	169523
#	182334
#	197208
#	204187
#	220645
#	237340
#	255864
#
# Disc length: 3718 seconds
#
# Revision: 0
# Processed by: cddbd v1.5.2PL0 Copyright (c) Steve Scherf et al.
# Submitted via: EasyCDDAExtractor 16.0.6.1
#
DISCID=e80e8412
DTITLE=Συλλογικός δίσκος - Τα ωραιότερα τσιφτετέλια 3
DYEAR=2011
DGENRE=Τσιφτετέλια
TTITLE0=Παπάζογλου Νίκος - Πότε Βούδας, πότε Κούδας [Π. Βαγιόπουλος-Μ. Ρασούλη
TTITLE0=ς]
TTITLE1=Αγγελόπουλος Μανώλης - Ανέβα στο τραπέζι μου [Μ. Μπακάλης-Κ. Βίρβος]
TTITLE2=Αλεξάνδρα - Θα σπάσω κούπες [αγνώστου, διασκ. Χρ. Νικολόπουλος]
TTITLE3=Γαβαλάς Πάνος-Κούρτη Ρία - Γλυκέ μου τύραννε [Γ. Γαβαλάς-Γ. Κυριαζής]
TTITLE4=Ζαγοραίος Σπύρος - Λίγο λίγο θα με συνηθίσεις [Α. Καλδάρας-ιδ κ Ε.Παπα
TTITLE4=γιαννοπούλου]
TTITLE5=Γλυκερία - Κάτσε στον καναπέ μου [Σ. Χρυσίνης-Χ. Βασιλειάδης]
TTITLE6=Πανταζής Λευτέρης-Λαμπράκη Χαρούλα - Κορίτσι μου όλα για σένα [Βασίλης
TTITLE6=Τσιτσάνης]
TTITLE7=Καρράς Βασίλης - Και λέγε λέγε [Θ. Πολυκανδριώτης-Γ. Πάριος]
TTITLE8=Λαμπράκη Χαρούλα - Θέλω τον Θεό να το ρωτήσω [Κ. Σούκας-Γ. Πιάς]
TTITLE9=Ντάλμα Ρένα - Έξω ντέρτια και καϋμοί [Στέλιος Καζαντζίδης]
TTITLE10=Χατζή Βάσω - Για το χατίρι μιάς παλιάς αγάπης [Γ. Κόρος-Π. Αλαφούζου]
TTITLE11=Πανταζής Λευτέρης - Στον έβδομο ουρανό [Δήμος Μυλωνάς]
TTITLE12=Ρόκκος Στέλιος-Δήμα Ερίντα - Χάντρα, χάντρα [Σ. Ρόκκος-Ιφ. Γιαννοπούλ
TTITLE12=ου]
TTITLE13=Χριστοδουλόπουλος Μάκης - Παντρεμένοι κι οι δυό [Μάκης Χριστοδουλόπου
TTITLE13=λος]
TTITLE14=Άνευ ερμηνευτού - Τσιφτετέλι Νο 1 [οργανικό, Γιώργος Κόρος]
TTITLE15=Γονίδης Σταμάτης - Πρώτο τραπέζι απόψε μόνος μου [Σ. Γονίδης-Β. Παπαδ
TTITLE15=όπουλος]
TTITLE16=Δημητριάδης Μανώλης - Σαλονικιός [Χ. Νικολόπουλος-Λ. Παπαδόπουλος]
TTITLE17=Λεονάρδου Σωτηρία-θίασος - Μπουρνοβαλιά [παραδ., διασκ. Σ. Ξαρχάκος-Ν
TTITLE17=Γκάτσος]
EXTD=
EXTT0=
EXTT1=
EXTT2=
EXTT3=
EXTT4=
EXTT5=
EXTT6=
EXTT7=
EXTT8=
EXTT9=
EXTT10=
EXTT11=
EXTT12=
EXTT13=
EXTT14=
EXTT15=
EXTT16=
EXTT17=
PLAYORDER=
